<?xml version="1.0" standalone="no"?>
<!DOCTYPE svg PUBLIC "-//W3C//DTD SVG 20010904//EN"
 "http://www.w3.org/TR/2001/REC-SVG-20010904/DTD/svg10.dtd">
<svg version="1.0" xmlns="http://www.w3.org/2000/svg"
 width="500.000000pt" height="500.000000pt" viewBox="0 0 500.000000 500.000000"
 preserveAspectRatio="xMidYMid meet">
<metadata>
Created by potrace 1.14, written by Peter Selinger 2001-2017
</metadata>
<g transform="translate(0.000000,500.000000) scale(0.100000,-0.100000)"
fill="#000000" stroke="none">
<path d="M0 2500 l0 -2500 2500 0 2500 0 0 2500 0 2500 -2500 0 -2500 0 0
-2500z m535 2040 c43 -147 153 -328 269 -442 59 -58 210 -178 225 -178 4 0 5
42 3 93 -5 105 6 160 32 165 11 3 51 -30 114 -95 219 -222 439 -358 681 -419
106 -27 121 -36 105 -61 -8 -13 -38 -21 -115 -30 -625 -79 -1104 -558 -1182
-1183 -15 -124 -28 -135 -82 -73 -66 74 -148 272 -199 478 -123 497 -127 958
-11 1515 28 135 62 264 77 293 6 12 18 17 35 15 23 -3 28 -12 48 -78z m4014
63 c14 -29 49 -159 76 -293 116 -557 112 -1018 -11 -1515 -51 -206 -133 -404
-199 -478 -54 -62 -67 -51 -82 73 -78 625 -557 1104 -1182 1183 -77 9 -107 17
-115 30 -16 25 -1 34 105 61 242 61 462 197 681 419 63 65 103 98 114 95 26
-5 37 -60 32 -165 -2 -51 -1 -93 3 -93 15 0 166 120 225 178 113 111 231 303
268 437 9 33 19 66 21 73 6 18 53 15 64 -5z m-1983 -1123 c4 -10 12 -3 24 25
19 44 21 42 41 -44 l12 -53 46 6 c205 30 305 30 477 0 352 -60 690 -311 862
-641 85 -163 142 -394 142 -573 0 -156 -45 -362 -110 -507 l-28 -62 44 -36
c25 -20 69 -52 99 -70 49 -29 52 -33 32 -39 -12 -3 -37 -6 -55 -6 -21 0 -31
-4 -26 -11 3 -6 51 -44 105 -84 l98 -73 -94 -7 c-52 -4 -131 -6 -177 -4 -46 1
-101 2 -123 0 l-40 -2 44 -39 44 -40 -60 0 c-33 0 -85 5 -116 10 l-56 11 -88
-66 c-421 -312 -1142 -419 -1758 -260 -253 65 -457 164 -635 305 -23 18 -31
19 -79 10 -30 -5 -81 -10 -114 -10 l-60 0 44 40 44 39 -40 2 c-22 2 -77 1
-123 0 -46 -2 -125 0 -177 4 l-94 7 98 73 c54 40 102 78 105 84 5 7 -5 11 -26
11 -18 0 -43 3 -55 6 -20 6 -17 10 32 39 30 18 74 50 99 70 l44 36 -28 62
c-65 145 -110 351 -110 507 0 179 57 410 142 573 172 330 510 581 862 641 172
30 272 30 476 0 l46 -6 17 56 c10 31 22 56 27 56 5 0 12 -16 16 -35 3 -20 8
-35 9 -33 2 2 15 68 29 148 15 80 29 152 32 160 4 8 22 -48 40 -125 19 -77 37
-147 40 -155z m-165 143 l-6 -38 -117 -3 c-109 -2 -118 -1 -128 18 -8 14 -8
26 0 40 10 18 21 20 134 20 l123 0 -6 -37z m453 31 c9 -4 16 -18 16 -34 0 -36
-12 -40 -133 -40 -130 0 -142 4 -155 46 l-10 34 133 0 c73 0 140 -3 149 -6z"/>
<path d="M1745 2458 c-146 -53 -205 -347 -109 -539 58 -116 181 -145 265 -63
112 109 129 373 33 525 -42 67 -125 101 -189 77z"/>
<path d="M3139 2447 c-100 -53 -156 -219 -130 -387 28 -178 114 -268 235 -246
106 20 173 165 164 355 -4 77 -10 109 -32 157 -31 70 -75 116 -125 133 -48 16
-62 14 -112 -12z"/>
<path d="M2292 1931 c2 -5 47 -55 101 -111 l98 -103 100 99 c54 54 99 104 99
111 0 10 -45 13 -201 13 -110 0 -199 -4 -197 -9z m286 -98 l-87 -86 -88 86
-88 87 175 0 175 0 -87 -87z"/>
</g>
</svg>
